# xmcd
#
# Track frame offsets:
#	150
#	14902
#	30155
#	43157
#	56810
#	74712
#	90339
#	108993
#	124438
#	142652
#	158741
#	170506
#	183795
#	202890
#	220436
#	238409
#	254982
#	269299
#	285063
#	300720
#	315140
#	328401
#
# Disc length: 4582 seconds
#
# Revision: 1
# Processed by: cddbd v1.5.2PL0 Copyright (c) Steve Scherf et al.
# Submitted via: audiograbber 1.83.01
#
DISCID=4511e416
DTITLE=Various Artist - CDX Volume 607 (October 27,2014)
DYEAR=2014
DGENRE=Country
TTITLE0=Cole Swindell - Ain't Worth The Whiskey
TTITLE1=Toby Keith - Drunk Americans 
TTITLE2=James Otto - Somewhere Tonight 
TTITLE3=Tate Stevens - Better At Night
TTITLE4=Ricky Gunn - King Of This Town
TTITLE5=John Spicer - Pretty Good At Lovin You
TTITLE6=Robertsons (Sadie Robertson with Alison Krauss) - Away In A Manger 
TTITLE7=Darius Rucker - Candy Cane Christmas 
TTITLE8=Toby Keith - Frosty The Snowman
TTITLE9=Robertsons (Willie Robertson with Luke Bryan) - Hairy Christmas 
TTITLE10=Dan and Shay - Have Yourself A Merry Little Christmas 
TTITLE11=Jerrod Niemann - Holly Jolly Christmas
TTITLE12=Alan Jackson - Let It Be Christmas 
TTITLE13=Brett Eldredge - Mary, Did You Know?
TTITLE14=Swon Brothers - Run Rudolph Run
TTITLE15=Darius Rucker - What God Wants For Christmas
TTITLE16=Henningsens - White Christmas
TTITLE17=Sherry Lynn - Christmas On My Mind
TTITLE18=Jordan Grassi - God Rest Ye Merry Gentlemen
TTITLE19=Liza G. Fly - I Had A Dream It Was Christmas
TTITLE20=Belles And Whistles - Mary Had A Little Boy
TTITLE21=Jody Lynn - This Time Of Year 
EXTD=
EXTT0=
EXTT1=
EXTT2=
EXTT3=
EXTT4=
EXTT5=
EXTT6=
EXTT7=
EXTT8=
EXTT9=
EXTT10=
EXTT11=
EXTT12=
EXTT13=
EXTT14=
EXTT15=
EXTT16=
EXTT17=
EXTT18=
EXTT19=
EXTT20=
EXTT21=
PLAYORDER=
